<svg width="50" height="50" viewBox="0 0 50 50" fill="none" xmlns="http://www.w3.org/2000/svg">
<path fill-rule="evenodd" clip-rule="evenodd" d="M31.2812 48.5738C44.3274 45.0781 52.0696 31.6683 48.5739 18.6221C45.0781 5.57598 31.6683 -2.16619 18.6222 1.32952C5.576 4.82523 -2.16617 18.2351 1.32954 31.2812C4.82524 44.3274 18.2351 52.0695 31.2812 48.5738ZM30.9565 12.119C30.2783 9.58777 27.8819 7.02811 25.9131 7.55565C23.9442 8.0832 23.1484 11.4982 23.827 14.0293C24.5052 16.5605 26.651 18.1848 28.6198 17.6573C30.5886 17.1297 31.6348 14.6501 30.9565 12.119ZM15.7836 10.2698C17.7525 9.74228 20.1488 12.3019 20.8271 14.8331C21.5053 17.3643 20.4592 19.8439 18.4903 20.3715C16.5215 20.899 14.3758 19.2747 13.6975 16.7435C13.0193 14.2123 13.8148 10.7974 15.7836 10.2698ZM8.34193 20.4014C6.85104 21.5136 7.28975 24.6153 8.68533 26.4791C10.081 28.3434 12.4208 28.9526 13.9116 27.84C15.4025 26.7277 15.4796 24.3151 14.084 22.4513C12.6884 20.5874 9.83282 19.2892 8.34193 20.4014ZM40.1654 18.044C39.8887 20.356 38.1671 22.0539 36.3198 21.8361C34.4726 21.6183 33.1995 19.5674 33.4762 17.2555C33.7529 14.9436 35.5768 12.3915 37.424 12.6093C39.2713 12.827 40.4421 15.7321 40.1654 18.044ZM36.713 26.3131C38.104 27.4722 39.429 28.7704 40.2692 30.3779C41.1095 31.9855 41.4129 33.9539 40.7232 35.6278C40.0334 37.3014 38.2073 38.5342 36.4327 38.2038C36.0474 38.1321 35.6696 37.9934 35.2939 37.8554C34.6408 37.6156 33.9937 37.3779 33.3239 37.4986C32.4362 37.6581 31.8024 38.3941 31.2043 39.0885C31.1497 39.1519 31.0954 39.2149 31.0413 39.2771C30.5735 39.8144 29.9786 40.3489 29.3203 40.53C28.6597 40.7023 27.8777 40.5371 27.2035 40.3054C27.1256 40.2787 27.0472 40.2513 26.9684 40.2238C26.1034 39.9216 25.1861 39.6011 24.3374 39.9065C23.697 40.1369 23.2555 40.6662 22.8098 41.2005C22.5534 41.5079 22.2956 41.8169 21.9978 42.0716C20.6261 43.2451 18.4283 43.0909 16.9941 41.9861C15.5598 40.8812 14.838 39.0249 14.7623 37.2125C14.6861 35.3998 15.1846 33.6134 15.8096 31.9141C17.2747 27.9318 20.1691 23.5332 24.4581 22.3839C28.7647 21.23 33.4541 23.5974 36.713 26.3131ZM29.4237 33.5121C29.9086 32.7319 30.4666 31.7461 30.7152 30.7301C30.9205 29.891 30.915 29.0314 30.4821 28.2501C30.068 27.5009 29.244 26.9662 28.4391 27.0764C27.5084 27.2035 26.6298 28.1162 26.2304 29.0013C25.4424 28.4348 24.2247 28.0838 23.3551 28.4386C22.6029 28.7457 22.1567 29.6207 22.1727 30.4766C22.1892 31.3695 22.6143 32.1166 23.2116 32.7407C23.9349 33.4963 24.911 34.071 25.7211 34.5043C26.1566 34.7371 26.6041 34.9445 27.0606 35.1247C27.0615 35.1249 27.0626 35.1255 27.0635 35.1257C27.5991 35.3342 28.2122 35.1699 28.5719 34.7215C28.5722 34.7212 28.5725 34.7208 28.5729 34.7204C28.5732 34.72 28.5735 34.7195 28.5738 34.7192C28.8791 34.3349 29.163 33.9315 29.4237 33.5121Z" fill="#FB923C"/>
</svg>
